<?xml version="1.0" encoding="UTF-8" standalone="no"?>
<!DOCTYPE svg PUBLIC "-//W3C//DTD SVG 1.1//EN"
 "http://www.w3.org/Graphics/SVG/1.1/DTD/svg11.dtd">
<!-- Generated by graphviz version 2.38.0 (20140413.2041)
 -->
<!-- Title: models_diagram Pages: 1 -->
<svg width="800pt" height="538pt"
 viewBox="0.00 0.00 800.00 538.00" xmlns="http://www.w3.org/2000/svg" xmlns:xlink="http://www.w3.org/1999/xlink">
<g id="graph0" class="graph" transform="scale(1 1) rotate(0) translate(4 534)">
<title>models_diagram</title>
<polygon fill="none" stroke="none" points="-4,4 -4,-534 796,-534 796,4 -4,4"/>
<!-- _diagram_info -->
<g id="node1" class="node"><title>_diagram_info</title>
<text text-anchor="start" x="190" y="-515.6" font-family="Times,serif" font-size="13.00">Models diagram</text>
<text text-anchor="start" x="190" y="-501.6" font-family="Times,serif" font-size="13.00">Date: Jun 02 2018 &#45; 00:08</text>
<text text-anchor="start" x="190" y="-487.6" font-family="Times,serif" font-size="13.00">Migration version: 20180525085559</text>
<text text-anchor="start" x="190" y="-473.6" font-family="Times,serif" font-size="13.00">Generated by RailRoady 1.5.3</text>
<text text-anchor="start" x="190" y="-459.6" font-family="Times,serif" font-size="13.00">http://railroady.prestonlee.com</text>
</g>
<!-- Occupation -->
<g id="node2" class="node"><title>Occupation</title>
<ellipse fill="none" stroke="black" cx="296" cy="-178" rx="51.1914" ry="18"/>
<text text-anchor="middle" x="296" y="-174.3" font-family="Times,serif" font-size="14.00">Occupation</text>
</g>
<!-- Observation -->
<g id="node3" class="node"><title>Observation</title>
<ellipse fill="none" stroke="black" cx="575" cy="-105" rx="53.8905" ry="18"/>
<text text-anchor="middle" x="575" y="-101.3" font-family="Times,serif" font-size="14.00">Observation</text>
</g>
<!-- ActsAsTaggableOn::Tagging -->
<g id="node15" class="node"><title>ActsAsTaggableOn::Tagging</title>
<ellipse fill="none" stroke="black" cx="398" cy="-18" rx="114.28" ry="18"/>
<text text-anchor="middle" x="398" y="-14.3" font-family="Times,serif" font-size="14.00">ActsAsTaggableOn::Tagging</text>
</g>
<!-- Observation&#45;&gt;ActsAsTaggableOn::Tagging -->
<g id="edge2" class="edge"><title>Observation&#45;&gt;ActsAsTaggableOn::Tagging</title>
<path fill="none" stroke="#bacf94" d="M530.859,-88.6406C515.777,-82.9686 498.948,-76.1639 484,-69 466.684,-60.7017 448.188,-50.1806 432.803,-40.9325"/>
<ellipse fill="none" stroke="#bacf94" cx="534.817" cy="-90.1085" rx="4.00001" ry="4.00001"/>
<polygon fill="#bacf94" stroke="#bacf94" points="432.68,-40.8577 426.475,-31.8163 428.408,-38.2594 424.136,-35.661 424.136,-35.661 424.136,-35.661 428.408,-38.2594 421.798,-39.5056 432.68,-40.8577 432.68,-40.8577"/>
<text text-anchor="middle" x="507" y="-57.8" font-family="Times,serif" font-size="14.00">taggings</text>
</g>
<!-- Observation&#45;&gt;ActsAsTaggableOn::Tagging -->
<g id="edge4" class="edge"><title>Observation&#45;&gt;ActsAsTaggableOn::Tagging</title>
<path fill="none" stroke="#fa7a27" d="M558.923,-80.8435C551.191,-71.2671 541.173,-60.8285 530,-54 516.179,-45.5532 500.334,-39.1221 484.529,-34.2324"/>
<ellipse fill="none" stroke="#fa7a27" cx="561.451" cy="-84.1153" rx="4.00002" ry="4.00002"/>
<polygon fill="#fa7a27" stroke="#fa7a27" points="484.315,-34.1705 475.966,-27.0612 479.513,-32.7767 474.712,-31.3828 474.712,-31.3828 474.712,-31.3828 479.513,-32.7767 473.457,-35.7045 484.315,-34.1705 484.315,-34.1705"/>
<text text-anchor="middle" x="582" y="-57.8" font-family="Times,serif" font-size="14.00">tag_taggings</text>
</g>
<!-- ActsAsTaggableOn::Tag -->
<g id="node16" class="node"><title>ActsAsTaggableOn::Tag</title>
<ellipse fill="none" stroke="black" cx="683" cy="-18" rx="98.5829" ry="18"/>
<text text-anchor="middle" x="683" y="-14.3" font-family="Times,serif" font-size="14.00">ActsAsTaggableOn::Tag</text>
</g>
<!-- Observation&#45;&gt;ActsAsTaggableOn::Tag -->
<g id="edge3" class="edge"><title>Observation&#45;&gt;ActsAsTaggableOn::Tag</title>
<path fill="none" stroke="#c94c1f" d="M605.556,-82.1748C611.398,-77.8745 617.427,-73.3468 623,-69 633.883,-60.5117 645.598,-50.8687 655.762,-42.3313"/>
<polygon fill="#c94c1f" stroke="#c94c1f" points="605.286,-82.3719 594.555,-84.6293 601.246,-85.3184 597.207,-88.2649 597.207,-88.2649 597.207,-88.2649 601.246,-85.3184 599.858,-91.9006 605.286,-82.3719 605.286,-82.3719"/>
<polygon fill="#c94c1f" stroke="#c94c1f" points="655.896,-42.2178 666.439,-39.2022 659.716,-38.9912 663.535,-35.7646 663.535,-35.7646 663.535,-35.7646 659.716,-38.9912 660.631,-32.327 655.896,-42.2178 655.896,-42.2178"/>
<text text-anchor="middle" x="667.5" y="-57.8" font-family="Times,serif" font-size="14.00">base_tags</text>
</g>
<!-- Observation&#45;&gt;ActsAsTaggableOn::Tag -->
<g id="edge5" class="edge"><title>Observation&#45;&gt;ActsAsTaggableOn::Tag</title>
<path fill="none" stroke="#095749" d="M625.434,-90.3798C658.864,-81.2349 696.809,-70.5773 698,-69 703.182,-62.1383 702.462,-53.4952 699.504,-45.3335"/>
<polygon fill="#095749" stroke="#095749" points="625.354,-90.4017 614.522,-88.6922 620.53,-91.7176 615.706,-93.0335 615.706,-93.0335 615.706,-93.0335 620.53,-91.7176 616.891,-97.3749 625.354,-90.4017 625.354,-90.4017"/>
<polygon fill="#095749" stroke="#095749" points="699.433,-45.1796 699.304,-34.2145 697.328,-40.6443 695.223,-36.109 695.223,-36.109 695.223,-36.109 697.328,-40.6443 691.141,-38.0036 699.433,-45.1796 699.433,-45.1796"/>
<text text-anchor="middle" x="712" y="-57.8" font-family="Times,serif" font-size="14.00">tags</text>
</g>
<!-- Notice -->
<g id="node4" class="node"><title>Notice</title>
<ellipse fill="none" stroke="black" cx="346" cy="-251" rx="34.394" ry="18"/>
<text text-anchor="middle" x="346" y="-247.3" font-family="Times,serif" font-size="14.00">Notice</text>
</g>
<!-- Intervention -->
<g id="node5" class="node"><title>Intervention</title>
<ellipse fill="none" stroke="black" cx="701" cy="-105" rx="53.8905" ry="18"/>
<text text-anchor="middle" x="701" y="-101.3" font-family="Times,serif" font-size="14.00">Intervention</text>
</g>
<!-- ApplicationRecord -->
<g id="node6" class="node"><title>ApplicationRecord</title>
<ellipse fill="none" stroke="black" cx="491" cy="-491" rx="77.1866" ry="18"/>
<text text-anchor="middle" x="491" y="-487.3" font-family="Times,serif" font-size="14.00">ApplicationRecord</text>
</g>
<!-- ApplicationRecord&#45;&gt;Occupation -->
<g id="edge1" class="edge"><title>ApplicationRecord&#45;&gt;Occupation</title>
<path fill="none" stroke="black" d="M457.773,-474.573C441.921,-467.406 422.612,-458.952 405,-452 358.586,-433.679 328.598,-455.173 299,-415 249.418,-347.703 276.952,-237.798 290.184,-195.926"/>
</g>
<!-- ApplicationRecord&#45;&gt;Observation -->
<g id="edge6" class="edge"><title>ApplicationRecord&#45;&gt;Observation</title>
<path fill="none" stroke="black" d="M554.271,-480.494C631.231,-467.109 751,-439.597 751,-398 751,-398 751,-398 751,-177 751,-162.338 665.911,-133.74 614.06,-117.674"/>
</g>
<!-- ApplicationRecord&#45;&gt;Notice -->
<g id="edge7" class="edge"><title>ApplicationRecord&#45;&gt;Notice</title>
<path fill="none" stroke="black" d="M492.318,-472.886C494.096,-437.598 493.244,-355.886 453,-306 442.189,-292.598 400.636,-273.956 372.609,-262.45"/>
</g>
<!-- ApplicationRecord&#45;&gt;Intervention -->
<g id="edge8" class="edge"><title>ApplicationRecord&#45;&gt;Intervention</title>
<path fill="none" stroke="black" d="M559.741,-482.67C647.748,-471.337 789,-445.716 789,-398 789,-398 789,-398 789,-177 789,-148.732 761.156,-129.801 736.793,-118.647"/>
</g>
<!-- Agency -->
<g id="node7" class="node"><title>Agency</title>
<ellipse fill="none" stroke="black" cx="180" cy="-251" rx="38.1938" ry="18"/>
<text text-anchor="middle" x="180" y="-247.3" font-family="Times,serif" font-size="14.00">Agency</text>
</g>
<!-- ApplicationRecord&#45;&gt;Agency -->
<g id="edge12" class="edge"><title>ApplicationRecord&#45;&gt;Agency</title>
<path fill="none" stroke="black" d="M461.601,-474.206C445.367,-466.212 424.578,-457.136 405,-452 365.046,-441.52 250.897,-461.413 220,-434 172.085,-391.488 174.36,-305.863 177.851,-269.247"/>
</g>
<!-- Signaler -->
<g id="node8" class="node"><title>Signaler</title>
<ellipse fill="none" stroke="black" cx="681" cy="-251" rx="40.0939" ry="18"/>
<text text-anchor="middle" x="681" y="-247.3" font-family="Times,serif" font-size="14.00">Signaler</text>
</g>
<!-- ApplicationRecord&#45;&gt;Signaler -->
<g id="edge16" class="edge"><title>ApplicationRecord&#45;&gt;Signaler</title>
<path fill="none" stroke="black" d="M547.641,-478.738C575.042,-470.585 606.382,-456.84 627,-434 670.397,-385.926 678.988,-304.423 680.638,-269.134"/>
</g>
<!-- Contact -->
<g id="node9" class="node"><title>Contact</title>
<ellipse fill="none" stroke="black" cx="88" cy="-105" rx="38.1938" ry="18"/>
<text text-anchor="middle" x="88" y="-101.3" font-family="Times,serif" font-size="14.00">Contact</text>
</g>
<!-- ApplicationRecord&#45;&gt;Contact -->
<g id="edge17" class="edge"><title>ApplicationRecord&#45;&gt;Contact</title>
<path fill="none" stroke="black" d="M462.468,-474.251C446.15,-466.059 425.004,-456.778 405,-452 316.688,-430.905 0,-488.796 0,-398 0,-398 0,-398 0,-177 0,-146.573 32.2601,-126.963 57.7154,-116.226"/>
</g>
<!-- Group -->
<g id="node10" class="node"><title>Group</title>
<ellipse fill="none" stroke="black" cx="341" cy="-397" rx="33.2948" ry="18"/>
<text text-anchor="middle" x="341" y="-393.3" font-family="Times,serif" font-size="14.00">Group</text>
</g>
<!-- ApplicationRecord&#45;&gt;Group -->
<g id="edge24" class="edge"><title>ApplicationRecord&#45;&gt;Group</title>
<path fill="none" stroke="black" d="M464.872,-473.975C435.83,-456.162 389.47,-427.728 362.461,-411.163"/>
</g>
<!-- Forwarder -->
<g id="node11" class="node"><title>Forwarder</title>
<ellipse fill="none" stroke="black" cx="397" cy="-324" rx="47.3916" ry="18"/>
<text text-anchor="middle" x="397" y="-320.3" font-family="Times,serif" font-size="14.00">Forwarder</text>
</g>
<!-- ApplicationRecord&#45;&gt;Forwarder -->
<g id="edge30" class="edge"><title>ApplicationRecord&#45;&gt;Forwarder</title>
<path fill="none" stroke="black" d="M486.151,-472.948C479.281,-450.368 465.361,-409.812 446,-379 437.244,-365.066 424.745,-351.358 414.562,-341.24"/>
</g>
<!-- Tipology -->
<g id="node12" class="node"><title>Tipology</title>
<ellipse fill="none" stroke="black" cx="441" cy="-251" rx="42.7926" ry="18"/>
<text text-anchor="middle" x="441" y="-247.3" font-family="Times,serif" font-size="14.00">Tipology</text>
</g>
<!-- ApplicationRecord&#45;&gt;Tipology -->
<g id="edge34" class="edge"><title>ApplicationRecord&#45;&gt;Tipology</title>
<path fill="none" stroke="black" d="M504.308,-472.942C511.691,-462.373 520.14,-448.153 524,-434 538.968,-379.116 551.124,-356.006 524,-306 513.099,-285.902 491.122,-272.112 472.52,-263.5"/>
</g>
<!-- Report -->
<g id="node13" class="node"><title>Report</title>
<ellipse fill="none" stroke="black" cx="575" cy="-178" rx="34.394" ry="18"/>
<text text-anchor="middle" x="575" y="-174.3" font-family="Times,serif" font-size="14.00">Report</text>
</g>
<!-- ApplicationRecord&#45;&gt;Report -->
<g id="edge41" class="edge"><title>ApplicationRecord&#45;&gt;Report</title>
<path fill="none" stroke="black" d="M536.082,-476.346C570.835,-462.703 613,-437.924 613,-398 613,-398 613,-398 613,-250 613,-229.029 599.954,-208.257 589.15,-194.651"/>
</g>
<!-- AddressBook -->
<g id="node14" class="node"><title>AddressBook</title>
<ellipse fill="none" stroke="black" cx="88" cy="-178" rx="58.4896" ry="18"/>
<text text-anchor="middle" x="88" y="-174.3" font-family="Times,serif" font-size="14.00">AddressBook</text>
</g>
<!-- ApplicationRecord&#45;&gt;AddressBook -->
<g id="edge43" class="edge"><title>ApplicationRecord&#45;&gt;AddressBook</title>
<path fill="none" stroke="black" d="M461.606,-474.186C445.374,-466.186 424.585,-457.111 405,-452 325.237,-431.186 38,-480.434 38,-398 38,-398 38,-398 38,-250 38,-228.14 54.0408,-208.265 67.9512,-195.14"/>
</g>
<!-- Agency&#45;&gt;Contact -->
<g id="edge10" class="edge"><title>Agency&#45;&gt;Contact</title>
<path fill="none" stroke="#b7e17a" d="M177.237,-224.836C174.189,-205.767 167.884,-179.593 155,-160 145.996,-146.308 132.408,-134.436 119.817,-125.337"/>
<ellipse fill="none" stroke="#b7e17a" cx="177.815" cy="-228.831" rx="4.00001" ry="4.00001"/>
<polygon fill="#b7e17a" stroke="#b7e17a" points="119.565,-125.164 113.88,-115.787 115.446,-122.328 111.328,-119.493 111.328,-119.493 111.328,-119.493 115.446,-122.328 108.776,-123.2 119.565,-125.164 119.565,-125.164"/>
</g>
<!-- Agency&#45;&gt;Report -->
<g id="edge9" class="edge"><title>Agency&#45;&gt;Report</title>
<path fill="none" stroke="#837276" d="M222.946,-242.281C299.118,-228.589 456.966,-200.216 532.684,-186.606"/>
<ellipse fill="none" stroke="#837276" cx="218.991" cy="-242.992" rx="4.00001" ry="4.00001"/>
<polygon fill="#837276" stroke="#837276" points="532.964,-186.556 543.603,-189.216 537.885,-185.671 542.806,-184.787 542.806,-184.787 542.806,-184.787 537.885,-185.671 542.01,-180.358 532.964,-186.556 532.964,-186.556"/>
</g>
<!-- Agency&#45;&gt;AddressBook -->
<g id="edge11" class="edge"><title>Agency&#45;&gt;AddressBook</title>
<path fill="none" stroke="#cfc933" d="M152.984,-229.151C141.583,-220.352 128.294,-210.096 116.715,-201.161"/>
<polygon fill="#cfc933" stroke="#cfc933" points="153.021,-229.179 158.188,-238.851 156.979,-232.234 160.938,-235.289 160.938,-235.289 160.938,-235.289 156.979,-232.234 163.687,-231.726 153.021,-229.179 153.021,-229.179"/>
<polygon fill="#cfc933" stroke="#cfc933" points="116.554,-201.036 111.387,-191.364 112.596,-197.982 108.638,-194.927 108.638,-194.927 108.638,-194.927 112.596,-197.982 105.888,-198.489 116.554,-201.036 116.554,-201.036"/>
</g>
<!-- Signaler&#45;&gt;Observation -->
<g id="edge14" class="edge"><title>Signaler&#45;&gt;Observation</title>
<path fill="none" stroke="#778a31" d="M665.245,-226.66C652.729,-208.324 634.627,-182.257 618,-160 610.751,-150.297 602.525,-139.839 595.221,-130.735"/>
<ellipse fill="none" stroke="#778a31" cx="667.667" cy="-230.218" rx="4.00002" ry="4.00002"/>
<polygon fill="#778a31" stroke="#778a31" points="595.11,-130.596 592.33,-119.988 591.969,-126.705 588.829,-122.815 588.829,-122.815 588.829,-122.815 591.969,-126.705 585.327,-125.641 595.11,-130.596 595.11,-130.596"/>
</g>
<!-- Signaler&#45;&gt;Intervention -->
<g id="edge15" class="edge"><title>Signaler&#45;&gt;Intervention</title>
<path fill="none" stroke="#f95da7" d="M684.495,-224.838C688.059,-199.172 693.573,-159.477 697.233,-133.124"/>
<ellipse fill="none" stroke="#f95da7" cx="683.923" cy="-228.954" rx="4.00001" ry="4.00001"/>
<polygon fill="#f95da7" stroke="#f95da7" points="697.255,-132.967 703.088,-123.681 697.942,-128.014 698.63,-123.062 698.63,-123.062 698.63,-123.062 697.942,-128.014 694.173,-122.443 697.255,-132.967 697.255,-132.967"/>
</g>
<!-- Signaler&#45;&gt;Report -->
<g id="edge13" class="edge"><title>Signaler&#45;&gt;Report</title>
<path fill="none" stroke="#1a1ad6" d="M652.642,-231.006C637.541,-220.89 619.006,-208.476 603.833,-198.313"/>
<ellipse fill="none" stroke="#1a1ad6" cx="656.226" cy="-233.406" rx="4.00002" ry="4.00002"/>
<polygon fill="#1a1ad6" stroke="#1a1ad6" points="603.648,-198.189 597.844,-188.885 599.494,-195.406 595.34,-192.624 595.34,-192.624 595.34,-192.624 599.494,-195.406 592.836,-196.363 603.648,-198.189 603.648,-198.189"/>
</g>
<!-- Group&#45;&gt;Occupation -->
<g id="edge18" class="edge"><title>Group&#45;&gt;Occupation</title>
<path fill="none" stroke="#c06267" d="M331.925,-371.381C323.003,-346.073 309.77,-305.34 303,-269 299.107,-248.105 297.375,-224.09 296.606,-206.125"/>
<ellipse fill="none" stroke="#c06267" cx="333.311" cy="-375.264" rx="4.00001" ry="4.00001"/>
<polygon fill="#c06267" stroke="#c06267" points="296.603,-206.054 300.745,-195.9 296.426,-201.057 296.248,-196.06 296.248,-196.06 296.248,-196.06 296.426,-201.057 291.751,-196.22 296.603,-206.054 296.603,-206.054"/>
</g>
<!-- Group&#45;&gt;Notice -->
<g id="edge22" class="edge"><title>Group&#45;&gt;Notice</title>
<path fill="none" stroke="#5e3557" d="M340.373,-370.467C340.084,-352.442 339.996,-327.73 341,-306 341.403,-297.271 342.171,-287.773 342.987,-279.212"/>
<ellipse fill="none" stroke="#5e3557" cx="340.453" cy="-374.736" rx="4" ry="4"/>
<polygon fill="#5e3557" stroke="#5e3557" points="343.014,-278.946 348.498,-269.45 343.517,-273.971 344.021,-268.997 344.021,-268.997 344.021,-268.997 343.517,-273.971 339.544,-268.543 343.014,-278.946 343.014,-278.946"/>
</g>
<!-- Group&#45;&gt;Group -->
<g id="edge23" class="edge"><title>Group&#45;&gt;Group</title>
<path fill="none" stroke="#b5f33e" d="M380.257,-403.352C387.258,-402.525 392.147,-400.408 392.147,-397 392.147,-393.882 388.055,-391.844 381.997,-390.887"/>
<ellipse fill="none" stroke="#b5f33e" cx="375.957" cy="-403.555" rx="4" ry="4"/>
<polygon fill="#b5f33e" stroke="#b5f33e" points="381.942,-390.883 372.244,-385.765 376.952,-390.57 371.962,-390.257 371.962,-390.257 371.962,-390.257 376.952,-390.57 371.68,-394.748 381.942,-390.883 381.942,-390.883"/>
<text text-anchor="middle" x="414.647" y="-393.3" font-family="Times,serif" font-size="14.00">children</text>
</g>
<!-- Group&#45;&gt;Forwarder -->
<g id="edge20" class="edge"><title>Group&#45;&gt;Forwarder</title>
<path fill="none" stroke="#b9d483" d="M358.562,-373.733C364.563,-366.126 371.309,-357.572 377.456,-349.779"/>
<ellipse fill="none" stroke="#b9d483" cx="355.905" cy="-377.102" rx="4.00002" ry="4.00002"/>
<polygon fill="#b9d483" stroke="#b9d483" points="377.633,-349.554 387.36,-344.489 380.73,-345.628 383.826,-341.702 383.826,-341.702 383.826,-341.702 380.73,-345.628 380.293,-338.916 377.633,-349.554 377.633,-349.554"/>
</g>
<!-- Group&#45;&gt;Tipology -->
<g id="edge19" class="edge"><title>Group&#45;&gt;Tipology</title>
<path fill="none" stroke="#cc3fae" d="M381.737,-387.836C406.973,-380.449 437.443,-366.772 453,-342 464.868,-323.103 459.941,-297.586 453.165,-278.548"/>
<polygon fill="#cc3fae" stroke="#cc3fae" points="381.667,-387.855 370.841,-386.112 376.839,-389.156 372.012,-390.457 372.012,-390.457 372.012,-390.457 376.839,-389.156 373.182,-394.802 381.667,-387.855 381.667,-387.855"/>
<polygon fill="#cc3fae" stroke="#cc3fae" points="453.067,-278.298 453.609,-267.345 451.243,-273.642 449.419,-268.987 449.419,-268.987 449.419,-268.987 451.243,-273.642 445.229,-270.628 453.067,-278.298 453.067,-278.298"/>
</g>
<!-- Group&#45;&gt;AddressBook -->
<g id="edge21" class="edge"><title>Group&#45;&gt;AddressBook</title>
<path fill="none" stroke="#c541a5" d="M302.642,-387.117C248.501,-372.434 150.836,-337.648 102,-269 89.1437,-250.928 86.1722,-225.644 86.1134,-206.475"/>
<ellipse fill="none" stroke="#c541a5" cx="306.755" cy="-388.201" rx="4.00001" ry="4.00001"/>
<polygon fill="#c541a5" stroke="#c541a5" points="86.1182,-206.265 90.848,-196.372 86.2337,-201.266 86.3492,-196.268 86.3492,-196.268 86.3492,-196.268 86.2337,-201.266 81.8504,-196.164 86.1182,-206.265 86.1182,-206.265"/>
</g>
<!-- Forwarder&#45;&gt;Notice -->
<g id="edge29" class="edge"><title>Forwarder&#45;&gt;Notice</title>
<path fill="none" stroke="#1e4078" d="M389.076,-298.285C387.348,-294.36 385.326,-290.459 383,-287 379.793,-282.231 375.829,-277.627 371.699,-273.412"/>
<ellipse fill="none" stroke="#1e4078" cx="390.565" cy="-302.035" rx="4.00001" ry="4.00001"/>
<polygon fill="#1e4078" stroke="#1e4078" points="371.461,-273.185 367.316,-263.033 367.838,-269.74 364.215,-266.294 364.215,-266.294 364.215,-266.294 367.838,-269.74 361.113,-269.554 371.461,-273.185 371.461,-273.185"/>
</g>
<!-- Forwarder&#45;&gt;Agency -->
<g id="edge28" class="edge"><title>Forwarder&#45;&gt;Agency</title>
<path fill="none" stroke="#6017c0" d="M377.13,-300.777C371.429,-295.55 364.879,-290.492 358,-287 335.464,-275.559 271.221,-264.706 226.425,-258.202"/>
<ellipse fill="none" stroke="#6017c0" cx="380.092" cy="-303.659" rx="4.00002" ry="4.00002"/>
<polygon fill="#6017c0" stroke="#6017c0" points="226.239,-258.175 216.975,-252.308 221.289,-257.469 216.34,-256.763 216.34,-256.763 216.34,-256.763 221.289,-257.469 215.704,-261.217 226.239,-258.175 226.239,-258.175"/>
</g>
<!-- Forwarder&#45;&gt;Tipology -->
<g id="edge25" class="edge"><title>Forwarder&#45;&gt;Tipology</title>
<path fill="none" stroke="#1936ca" d="M411.755,-299.19C416.114,-292.157 420.899,-284.436 425.314,-277.312"/>
<ellipse fill="none" stroke="#1936ca" cx="409.534" cy="-302.774" rx="4.00002" ry="4.00002"/>
<polygon fill="#1936ca" stroke="#1936ca" points="425.38,-277.205 434.473,-271.076 428.014,-272.955 430.647,-268.705 430.647,-268.705 430.647,-268.705 428.014,-272.955 426.822,-266.335 425.38,-277.205 425.38,-277.205"/>
</g>
<!-- Forwarder&#45;&gt;Report -->
<g id="edge26" class="edge"><title>Forwarder&#45;&gt;Report</title>
<path fill="none" stroke="#29512d" d="M451.288,-318.151C486.106,-312.152 529.58,-298.778 556,-269 571.113,-251.967 575.285,-225.986 576.015,-206.309"/>
<ellipse fill="none" stroke="#29512d" cx="447.045" cy="-318.826" rx="4.00001" ry="4.00001"/>
<polygon fill="#29512d" stroke="#29512d" points="576.017,-206.123 580.614,-196.168 576.066,-201.123 576.114,-196.124 576.114,-196.124 576.114,-196.124 576.066,-201.123 571.615,-196.08 576.017,-206.123 576.017,-206.123"/>
</g>
<!-- Forwarder&#45;&gt;AddressBook -->
<g id="edge27" class="edge"><title>Forwarder&#45;&gt;AddressBook</title>
<path fill="none" stroke="#e892fd" d="M347.85,-313.225C272.073,-298.116 135.146,-270.646 133,-269 112.725,-253.444 100.928,-226.279 94.5396,-205.851"/>
<ellipse fill="none" stroke="#e892fd" cx="351.957" cy="-314.044" rx="4.00001" ry="4.00001"/>
<polygon fill="#e892fd" stroke="#e892fd" points="94.517,-205.773 96.0745,-194.918 93.1336,-200.968 91.7501,-196.163 91.7501,-196.163 91.7501,-196.163 93.1336,-200.968 87.4258,-197.408 94.517,-205.773 94.517,-205.773"/>
</g>
<!-- Tipology&#45;&gt;Occupation -->
<g id="edge32" class="edge"><title>Tipology&#45;&gt;Occupation</title>
<path fill="none" stroke="#8ebc12" d="M406.59,-233.151C384.689,-222.427 356.31,-208.531 333.785,-197.501"/>
<ellipse fill="none" stroke="#8ebc12" cx="410.474" cy="-235.053" rx="4.00002" ry="4.00002"/>
<polygon fill="#8ebc12" stroke="#8ebc12" points="333.506,-197.365 326.504,-188.926 329.016,-195.166 324.525,-192.967 324.525,-192.967 324.525,-192.967 329.016,-195.166 322.546,-197.009 333.506,-197.365 333.506,-197.365"/>
</g>
<!-- Tipology&#45;&gt;Tipology -->
<g id="edge33" class="edge"><title>Tipology&#45;&gt;Tipology</title>
<path fill="none" stroke="#2b7b4f" d="M489.118,-257.201C496.71,-256.284 501.896,-254.217 501.896,-251 501.896,-248.051 497.538,-246.069 490.964,-245.052"/>
<ellipse fill="none" stroke="#2b7b4f" cx="484.818" cy="-257.478" rx="4" ry="4"/>
<polygon fill="#2b7b4f" stroke="#2b7b4f" points="490.797,-245.039 481.175,-239.778 485.812,-244.652 480.827,-244.265 480.827,-244.265 480.827,-244.265 485.812,-244.652 480.478,-248.751 490.797,-245.039 490.797,-245.039"/>
<text text-anchor="middle" x="524.396" y="-247.3" font-family="Times,serif" font-size="14.00">children</text>
</g>
<!-- Tipology&#45;&gt;Report -->
<g id="edge31" class="edge"><title>Tipology&#45;&gt;Report</title>
<path fill="none" stroke="#21e179" d="M473.697,-232.676C494.531,-221.637 521.425,-207.387 542.266,-196.344"/>
<ellipse fill="none" stroke="#21e179" cx="470.054" cy="-234.606" rx="4.00002" ry="4.00002"/>
<polygon fill="#21e179" stroke="#21e179" points="542.536,-196.201 553.479,-195.495 546.954,-193.86 551.372,-191.519 551.372,-191.519 551.372,-191.519 546.954,-193.86 549.265,-187.543 542.536,-196.201 542.536,-196.201"/>
</g>
<!-- Report&#45;&gt;Observation -->
<g id="edge39" class="edge"><title>Report&#45;&gt;Observation</title>
<path fill="none" stroke="#81a71a" d="M575,-151.791C575,-145.832 575,-139.45 575,-133.399"/>
<ellipse fill="none" stroke="#81a71a" cx="575" cy="-155.813" rx="4" ry="4"/>
<polygon fill="#81a71a" stroke="#81a71a" points="575,-133.029 579.5,-123.029 575,-128.029 575,-123.029 575,-123.029 575,-123.029 575,-128.029 570.5,-123.029 575,-133.029 575,-133.029"/>
</g>
<!-- Report&#45;&gt;Intervention -->
<g id="edge40" class="edge"><title>Report&#45;&gt;Intervention</title>
<path fill="none" stroke="#f4865d" d="M604.725,-160.25C623.074,-149.911 646.706,-136.594 665.964,-125.742"/>
<ellipse fill="none" stroke="#f4865d" cx="601.011" cy="-162.343" rx="4.00002" ry="4.00002"/>
<polygon fill="#f4865d" stroke="#f4865d" points="666.035,-125.703 676.956,-124.714 670.391,-123.248 674.747,-120.793 674.747,-120.793 674.747,-120.793 670.391,-123.248 672.538,-116.873 666.035,-125.703 666.035,-125.703"/>
</g>
<!-- Report&#45;&gt;ActsAsTaggableOn::Tagging -->
<g id="edge35" class="edge"><title>Report&#45;&gt;ActsAsTaggableOn::Tagging</title>
<path fill="none" stroke="#1b303c" d="M532.179,-176.262C456.672,-173.9 305.063,-164.035 276,-123 251.198,-87.9803 300.528,-57.4182 343.689,-38.6478"/>
<ellipse fill="none" stroke="#1b303c" cx="536.561" cy="-176.388" rx="4" ry="4"/>
<polygon fill="#1b303c" stroke="#1b303c" points="343.84,-38.5844 354.802,-38.8577 348.449,-36.6468 353.058,-34.7093 353.058,-34.7093 353.058,-34.7093 348.449,-36.6468 351.315,-30.5609 343.84,-38.5844 343.84,-38.5844"/>
<text text-anchor="middle" x="299" y="-101.3" font-family="Times,serif" font-size="14.00">taggings</text>
</g>
<!-- Report&#45;&gt;ActsAsTaggableOn::Tagging -->
<g id="edge37" class="edge"><title>Report&#45;&gt;ActsAsTaggableOn::Tagging</title>
<path fill="none" stroke="#08641a" d="M533.49,-171.848C480.24,-164.288 392.411,-148.281 373,-123 355.606,-100.345 368.138,-67.3713 380.914,-44.656"/>
<ellipse fill="none" stroke="#08641a" cx="537.762" cy="-172.44" rx="4.00001" ry="4.00001"/>
<polygon fill="#08641a" stroke="#08641a" points="381.01,-44.4943 389.997,-38.2094 383.571,-40.1996 386.131,-35.905 386.131,-35.905 386.131,-35.905 383.571,-40.1996 382.266,-33.6005 381.01,-44.4943 381.01,-44.4943"/>
<text text-anchor="middle" x="408" y="-101.3" font-family="Times,serif" font-size="14.00">tag_taggings</text>
</g>
<!-- Report&#45;&gt;ActsAsTaggableOn::Tag -->
<g id="edge36" class="edge"><title>Report&#45;&gt;ActsAsTaggableOn::Tag</title>
<path fill="none" stroke="#6adf7c" d="M532.944,-169.267C506.809,-162.056 475.201,-148.412 459,-123 442.471,-97.0735 442.347,-75.8294 464,-54 473.174,-44.7517 533.846,-35.5007 589.007,-28.8342"/>
<polygon fill="#6adf7c" stroke="#6adf7c" points="532.956,-169.27 541.543,-176.09 537.802,-170.499 542.649,-171.728 542.649,-171.728 542.649,-171.728 537.802,-170.499 543.755,-167.365 532.956,-169.27 532.956,-169.27"/>
<polygon fill="#6adf7c" stroke="#6adf7c" points="589.299,-28.7996 599.76,-32.0886 594.264,-28.2098 599.229,-27.62 599.229,-27.62 599.229,-27.62 594.264,-28.2098 598.698,-23.1514 589.299,-28.7996 589.299,-28.7996"/>
<text text-anchor="middle" x="485.5" y="-101.3" font-family="Times,serif" font-size="14.00">base_tags</text>
</g>
<!-- Report&#45;&gt;ActsAsTaggableOn::Tag -->
<g id="edge38" class="edge"><title>Report&#45;&gt;ActsAsTaggableOn::Tag</title>
<path fill="none" stroke="#258208" d="M617.681,-170.827C667.815,-162.601 746.408,-146.322 764,-123 785.604,-94.3584 750.377,-61.797 719.819,-40.8562"/>
<polygon fill="#258208" stroke="#258208" points="617.628,-170.836 607.044,-167.969 612.691,-171.624 607.753,-172.412 607.753,-172.412 607.753,-172.412 612.691,-171.624 608.463,-176.856 617.628,-170.836 617.628,-170.836"/>
<polygon fill="#258208" stroke="#258208" points="719.715,-40.7878 713.857,-31.5176 715.545,-38.0293 711.375,-35.2709 711.375,-35.2709 711.375,-35.2709 715.545,-38.0293 708.892,-39.0241 719.715,-40.7878 719.715,-40.7878"/>
<text text-anchor="middle" x="781" y="-101.3" font-family="Times,serif" font-size="14.00">tags</text>
</g>
<!-- AddressBook&#45;&gt;Contact -->
<g id="edge42" class="edge"><title>AddressBook&#45;&gt;Contact</title>
<path fill="none" stroke="#0eec4b" d="M88,-151.791C88,-145.832 88,-139.45 88,-133.399"/>
<ellipse fill="none" stroke="#0eec4b" cx="88" cy="-155.813" rx="4" ry="4"/>
<polygon fill="#0eec4b" stroke="#0eec4b" points="88.0001,-133.029 92.5,-123.029 88,-128.029 88,-123.029 88,-123.029 88,-123.029 88,-128.029 83.5,-123.029 88.0001,-133.029 88.0001,-133.029"/>
</g>
</g>
</svg>
