<?xml version="1.0" encoding="UTF-8" standalone="no"?>
<!DOCTYPE svg PUBLIC "-//W3C//DTD SVG 1.1//EN"
 "http://www.w3.org/Graphics/SVG/1.1/DTD/svg11.dtd">
<!-- Generated by graphviz version 2.38.0 (20140413.2041)
 -->
<!-- Title: models_diagram Pages: 1 -->
<svg width="1085pt" height="1613pt"
 viewBox="0.00 0.00 1085.42 1613.00" xmlns="http://www.w3.org/2000/svg" xmlns:xlink="http://www.w3.org/1999/xlink">
<g id="graph0" class="graph" transform="scale(1 1) rotate(0) translate(4 1609)">
<title>models_diagram</title>
<polygon fill="none" stroke="none" points="-4,4 -4,-1609 1081.42,-1609 1081.42,4 -4,4"/>
<!-- _diagram_info -->
<g id="node1" class="node"><title>_diagram_info</title>
<text text-anchor="start" x="354" y="-1590.6" font-family="Times,serif" font-size="13.00">Models diagram</text>
<text text-anchor="start" x="354" y="-1576.6" font-family="Times,serif" font-size="13.00">Date: Jun 02 2018 &#45; 00:08</text>
<text text-anchor="start" x="354" y="-1562.6" font-family="Times,serif" font-size="13.00">Migration version: 20180525085559</text>
<text text-anchor="start" x="354" y="-1548.6" font-family="Times,serif" font-size="13.00">Generated by RailRoady 1.5.3</text>
<text text-anchor="start" x="354" y="-1534.6" font-family="Times,serif" font-size="13.00">http://railroady.prestonlee.com</text>
</g>
<!-- Occupation -->
<g id="node2" class="node"><title>Occupation</title>
<path fill="none" stroke="black" d="M300.5,-344C300.5,-344 407.5,-344 407.5,-344 413.5,-344 419.5,-350 419.5,-356 419.5,-356 419.5,-438 419.5,-438 419.5,-444 413.5,-450 407.5,-450 407.5,-450 300.5,-450 300.5,-450 294.5,-450 288.5,-444 288.5,-438 288.5,-438 288.5,-356 288.5,-356 288.5,-350 294.5,-344 300.5,-344"/>
<text text-anchor="middle" x="354" y="-434.8" font-family="Times,serif" font-size="14.00">Occupation</text>
<polyline fill="none" stroke="black" points="288.5,-427 419.5,-427 "/>
<text text-anchor="start" x="296.5" y="-411.8" font-family="Times,serif" font-size="14.00">id :INTEGER</text>
<text text-anchor="start" x="296.5" y="-396.8" font-family="Times,serif" font-size="14.00">group_id :integer</text>
<text text-anchor="start" x="296.5" y="-381.8" font-family="Times,serif" font-size="14.00">tipology_id :integer</text>
<text text-anchor="start" x="296.5" y="-366.8" font-family="Times,serif" font-size="14.00">created_at :datetime</text>
<text text-anchor="start" x="296.5" y="-351.8" font-family="Times,serif" font-size="14.00">updated_at :datetime</text>
</g>
<!-- Observation -->
<g id="node3" class="node"><title>Observation</title>
<path fill="none" stroke="black" d="M691.5,-87.5C691.5,-87.5 798.5,-87.5 798.5,-87.5 804.5,-87.5 810.5,-93.5 810.5,-99.5 810.5,-99.5 810.5,-211.5 810.5,-211.5 810.5,-217.5 804.5,-223.5 798.5,-223.5 798.5,-223.5 691.5,-223.5 691.5,-223.5 685.5,-223.5 679.5,-217.5 679.5,-211.5 679.5,-211.5 679.5,-99.5 679.5,-99.5 679.5,-93.5 685.5,-87.5 691.5,-87.5"/>
<text text-anchor="middle" x="745" y="-208.3" font-family="Times,serif" font-size="14.00">Observation</text>
<polyline fill="none" stroke="black" points="679.5,-200.5 810.5,-200.5 "/>
<text text-anchor="start" x="687.5" y="-185.3" font-family="Times,serif" font-size="14.00">id :INTEGER</text>
<text text-anchor="start" x="687.5" y="-170.3" font-family="Times,serif" font-size="14.00">content :text</text>
<text text-anchor="start" x="687.5" y="-155.3" font-family="Times,serif" font-size="14.00">signaler_id :integer</text>
<text text-anchor="start" x="687.5" y="-140.3" font-family="Times,serif" font-size="14.00">report_id :integer</text>
<text text-anchor="start" x="687.5" y="-125.3" font-family="Times,serif" font-size="14.00">images :varchar</text>
<text text-anchor="start" x="687.5" y="-110.3" font-family="Times,serif" font-size="14.00">created_at :datetime</text>
<text text-anchor="start" x="687.5" y="-95.3" font-family="Times,serif" font-size="14.00">updated_at :datetime</text>
</g>
<!-- ActsAsTaggableOn::Tagging -->
<g id="node15" class="node"><title>ActsAsTaggableOn::Tagging</title>
<ellipse fill="none" stroke="black" cx="556" cy="-18" rx="114.28" ry="18"/>
<text text-anchor="middle" x="556" y="-14.3" font-family="Times,serif" font-size="14.00">ActsAsTaggableOn::Tagging</text>
</g>
<!-- Observation&#45;&gt;ActsAsTaggableOn::Tagging -->
<g id="edge2" class="edge"><title>Observation&#45;&gt;ActsAsTaggableOn::Tagging</title>
<path fill="none" stroke="#b3eb25" d="M672.542,-92.608C670.016,-90.6928 667.497,-88.8183 665,-87 642.123,-70.3438 615.149,-53.495 593.758,-40.7356"/>
<ellipse fill="none" stroke="#b3eb25" cx="676.066" cy="-95.3216" rx="4.00002" ry="4.00002"/>
<polygon fill="#b3eb25" stroke="#b3eb25" points="593.566,-40.6225 587.252,-31.6573 589.263,-38.0763 584.96,-35.5301 584.96,-35.5301 584.96,-35.5301 589.263,-38.0763 582.669,-39.4029 593.566,-40.6225 593.566,-40.6225"/>
<text text-anchor="middle" x="661" y="-57.8" font-family="Times,serif" font-size="14.00">taggings</text>
</g>
<!-- Observation&#45;&gt;ActsAsTaggableOn::Tagging -->
<g id="edge4" class="edge"><title>Observation&#45;&gt;ActsAsTaggableOn::Tagging</title>
<path fill="none" stroke="#f6b6f1" d="M712.302,-80.3478C705.424,-70.4335 697.356,-61.2168 688,-54 676.484,-45.1172 662.908,-38.4817 648.92,-33.5267"/>
<ellipse fill="none" stroke="#f6b6f1" cx="714.678" cy="-83.964" rx="4.00002" ry="4.00002"/>
<polygon fill="#f6b6f1" stroke="#f6b6f1" points="648.699,-33.4547 640.584,-26.079 643.944,-31.9062 639.19,-30.3577 639.19,-30.3577 639.19,-30.3577 643.944,-31.9062 637.797,-34.6365 648.699,-33.4547 648.699,-33.4547"/>
<text text-anchor="middle" x="736" y="-57.8" font-family="Times,serif" font-size="14.00">tag_taggings</text>
</g>
<!-- ActsAsTaggableOn::Tag -->
<g id="node16" class="node"><title>ActsAsTaggableOn::Tag</title>
<ellipse fill="none" stroke="black" cx="841" cy="-18" rx="98.5829" ry="18"/>
<text text-anchor="middle" x="841" y="-14.3" font-family="Times,serif" font-size="14.00">ActsAsTaggableOn::Tag</text>
</g>
<!-- Observation&#45;&gt;ActsAsTaggableOn::Tag -->
<g id="edge3" class="edge"><title>Observation&#45;&gt;ActsAsTaggableOn::Tag</title>
<path fill="none" stroke="#b699e4" d="M786.323,-78.7221C791.918,-70.1422 797.859,-61.7187 804,-54 807.007,-50.2201 810.415,-46.4598 813.917,-42.8827"/>
<polygon fill="#b699e4" stroke="#b699e4" points="786.213,-78.8947 777.05,-84.9195 783.531,-83.1142 780.848,-87.3338 780.848,-87.3338 780.848,-87.3338 783.531,-83.1142 784.646,-89.748 786.213,-78.8947 786.213,-78.8947"/>
<polygon fill="#b699e4" stroke="#b699e4" points="813.973,-42.8279 824.276,-39.0737 817.555,-39.339 821.136,-35.8502 821.136,-35.8502 821.136,-35.8502 817.555,-39.339 817.996,-32.6267 813.973,-42.8279 813.973,-42.8279"/>
<text text-anchor="middle" x="830.5" y="-57.8" font-family="Times,serif" font-size="14.00">base_tags</text>
</g>
<!-- Observation&#45;&gt;ActsAsTaggableOn::Tag -->
<g id="edge5" class="edge"><title>Observation&#45;&gt;ActsAsTaggableOn::Tag</title>
<path fill="none" stroke="#fe3d13" d="M819.142,-87.5811C819.428,-87.3864 819.714,-87.1927 820,-87 835.167,-76.7833 847.301,-84.5035 857,-69 861.467,-61.8587 860.624,-53.3569 857.722,-45.4077"/>
<polygon fill="#fe3d13" stroke="#fe3d13" points="819,-87.6818 808.245,-89.8186 814.928,-90.5828 810.856,-93.4838 810.856,-93.4838 810.856,-93.4838 814.928,-90.5828 813.467,-97.1489 819,-87.6818 819,-87.6818"/>
<polygon fill="#fe3d13" stroke="#fe3d13" points="857.612,-45.1739 857.456,-34.2091 855.496,-40.644 853.379,-36.114 853.379,-36.114 853.379,-36.114 855.496,-40.644 849.302,-38.019 857.612,-45.1739 857.612,-45.1739"/>
<text text-anchor="middle" x="871" y="-57.8" font-family="Times,serif" font-size="14.00">tags</text>
</g>
<!-- Notice -->
<g id="node4" class="node"><title>Notice</title>
<path fill="none" stroke="black" d="M382,-683C382,-683 490,-683 490,-683 496,-683 502,-689 502,-695 502,-695 502,-852 502,-852 502,-858 496,-864 490,-864 490,-864 382,-864 382,-864 376,-864 370,-858 370,-852 370,-852 370,-695 370,-695 370,-689 376,-683 382,-683"/>
<text text-anchor="middle" x="436" y="-848.8" font-family="Times,serif" font-size="14.00">Notice</text>
<polyline fill="none" stroke="black" points="370,-841 502,-841 "/>
<text text-anchor="start" x="378" y="-825.8" font-family="Times,serif" font-size="14.00">id :INTEGER</text>
<text text-anchor="start" x="378" y="-810.8" font-family="Times,serif" font-size="14.00">title :varchar</text>
<text text-anchor="start" x="378" y="-795.8" font-family="Times,serif" font-size="14.00">content :text</text>
<text text-anchor="start" x="378" y="-780.8" font-family="Times,serif" font-size="14.00">posting_date :date</text>
<text text-anchor="start" x="378" y="-765.8" font-family="Times,serif" font-size="14.00">expiration_date :date</text>
<text text-anchor="start" x="378" y="-750.8" font-family="Times,serif" font-size="14.00">notice_type :varchar</text>
<text text-anchor="start" x="378" y="-735.8" font-family="Times,serif" font-size="14.00">group_id :integer</text>
<text text-anchor="start" x="378" y="-720.8" font-family="Times,serif" font-size="14.00">forwarder_id :integer</text>
<text text-anchor="start" x="378" y="-705.8" font-family="Times,serif" font-size="14.00">created_at :datetime</text>
<text text-anchor="start" x="378" y="-690.8" font-family="Times,serif" font-size="14.00">updated_at :datetime</text>
</g>
<!-- Intervention -->
<g id="node5" class="node"><title>Intervention</title>
<path fill="none" stroke="black" d="M841,-95C841,-95 977,-95 977,-95 983,-95 989,-101 989,-107 989,-107 989,-204 989,-204 989,-210 983,-216 977,-216 977,-216 841,-216 841,-216 835,-216 829,-210 829,-204 829,-204 829,-107 829,-107 829,-101 835,-95 841,-95"/>
<text text-anchor="middle" x="909" y="-200.8" font-family="Times,serif" font-size="14.00">Intervention</text>
<polyline fill="none" stroke="black" points="829,-193 989,-193 "/>
<text text-anchor="start" x="837" y="-177.8" font-family="Times,serif" font-size="14.00">id :INTEGER</text>
<text text-anchor="start" x="837" y="-162.8" font-family="Times,serif" font-size="14.00">intervention_type :varchar</text>
<text text-anchor="start" x="837" y="-147.8" font-family="Times,serif" font-size="14.00">signaler_id :integer</text>
<text text-anchor="start" x="837" y="-132.8" font-family="Times,serif" font-size="14.00">report_id :integer</text>
<text text-anchor="start" x="837" y="-117.8" font-family="Times,serif" font-size="14.00">created_at :datetime</text>
<text text-anchor="start" x="837" y="-102.8" font-family="Times,serif" font-size="14.00">updated_at :datetime</text>
</g>
<!-- ApplicationRecord -->
<g id="node6" class="node"><title>ApplicationRecord</title>
<ellipse fill="none" stroke="black" cx="655" cy="-1566" rx="77.1866" ry="18"/>
<text text-anchor="middle" x="655" y="-1562.3" font-family="Times,serif" font-size="14.00">ApplicationRecord</text>
</g>
<!-- ApplicationRecord&#45;&gt;Occupation -->
<g id="edge1" class="edge"><title>ApplicationRecord&#45;&gt;Occupation</title>
<path fill="none" stroke="black" d="M624.639,-1549.43C608.477,-1541.7 588.053,-1532.79 569,-1527 478.329,-1499.43 425.324,-1557.7 359,-1490 215.824,-1343.87 307.934,-773.871 325,-570 328.398,-529.412 336.23,-483.995 342.9,-450.027"/>
</g>
<!-- ApplicationRecord&#45;&gt;Observation -->
<g id="edge6" class="edge"><title>ApplicationRecord&#45;&gt;Observation</title>
<path fill="none" stroke="black" d="M716.799,-1555.1C824.914,-1536.03 1037,-1490.01 1037,-1422.5 1037,-1422.5 1037,-1422.5 1037,-396 1037,-272.934 918.233,-298.132 820,-224 816.924,-221.679 813.822,-219.258 810.723,-216.771"/>
</g>
<!-- ApplicationRecord&#45;&gt;Notice -->
<g id="edge7" class="edge"><title>ApplicationRecord&#45;&gt;Notice</title>
<path fill="none" stroke="black" d="M656.246,-1547.9C661.977,-1464.42 682.811,-1100.23 617,-1014 586.726,-974.334 546.615,-1011.95 511,-977 480.362,-946.934 462.127,-903.254 451.329,-864.152"/>
</g>
<!-- ApplicationRecord&#45;&gt;Intervention -->
<g id="edge8" class="edge"><title>ApplicationRecord&#45;&gt;Intervention</title>
<path fill="none" stroke="black" d="M731.41,-1562.83C807.668,-1557.62 925.869,-1541.1 1014,-1490 1048.98,-1469.72 1075,-1462.94 1075,-1422.5 1075,-1422.5 1075,-1422.5 1075,-396 1075,-335.059 1084.68,-311.791 1051,-261 1034.31,-235.828 1018.52,-241.634 994,-224 990.481,-221.47 986.909,-218.849 983.32,-216.175"/>
</g>
<!-- Agency -->
<g id="node7" class="node"><title>Agency</title>
<path fill="none" stroke="black" d="M154,-653C154,-653 264,-653 264,-653 270,-653 276,-659 276,-665 276,-665 276,-882 276,-882 276,-888 270,-894 264,-894 264,-894 154,-894 154,-894 148,-894 142,-888 142,-882 142,-882 142,-665 142,-665 142,-659 148,-653 154,-653"/>
<text text-anchor="middle" x="209" y="-878.8" font-family="Times,serif" font-size="14.00">Agency</text>
<polyline fill="none" stroke="black" points="142,-871 276,-871 "/>
<text text-anchor="start" x="150" y="-855.8" font-family="Times,serif" font-size="14.00">id :INTEGER</text>
<text text-anchor="start" x="150" y="-840.8" font-family="Times,serif" font-size="14.00">name :varchar</text>
<text text-anchor="start" x="150" y="-825.8" font-family="Times,serif" font-size="14.00">phone :varchar</text>
<text text-anchor="start" x="150" y="-810.8" font-family="Times,serif" font-size="14.00">email :varchar</text>
<text text-anchor="start" x="150" y="-795.8" font-family="Times,serif" font-size="14.00">fax :varchar</text>
<text text-anchor="start" x="150" y="-780.8" font-family="Times,serif" font-size="14.00">street :varchar</text>
<text text-anchor="start" x="150" y="-765.8" font-family="Times,serif" font-size="14.00">number :varchar</text>
<text text-anchor="start" x="150" y="-750.8" font-family="Times,serif" font-size="14.00">city :varchar</text>
<text text-anchor="start" x="150" y="-735.8" font-family="Times,serif" font-size="14.00">zip_code :varchar</text>
<text text-anchor="start" x="150" y="-720.8" font-family="Times,serif" font-size="14.00">note :text</text>
<text text-anchor="start" x="150" y="-705.8" font-family="Times,serif" font-size="14.00">web_site_url :varchar</text>
<text text-anchor="start" x="150" y="-690.8" font-family="Times,serif" font-size="14.00">forwarder_id :integer</text>
<text text-anchor="start" x="150" y="-675.8" font-family="Times,serif" font-size="14.00">created_at :datetime</text>
<text text-anchor="start" x="150" y="-660.8" font-family="Times,serif" font-size="14.00">updated_at :datetime</text>
</g>
<!-- ApplicationRecord&#45;&gt;Agency -->
<g id="edge12" class="edge"><title>ApplicationRecord&#45;&gt;Agency</title>
<path fill="none" stroke="black" d="M626.062,-1549.13C609.793,-1541 588.824,-1531.83 569,-1527 537.525,-1519.33 301.269,-1531.54 278,-1509 114.474,-1350.61 144.767,-1058.07 178.564,-894.026"/>
</g>
<!-- Signaler -->
<g id="node8" class="node"><title>Signaler</title>
<path fill="none" stroke="black" d="M821,-570.5C821,-570.5 997,-570.5 997,-570.5 1003,-570.5 1009,-576.5 1009,-582.5 1009,-582.5 1009,-964.5 1009,-964.5 1009,-970.5 1003,-976.5 997,-976.5 997,-976.5 821,-976.5 821,-976.5 815,-976.5 809,-970.5 809,-964.5 809,-964.5 809,-582.5 809,-582.5 809,-576.5 815,-570.5 821,-570.5"/>
<text text-anchor="middle" x="909" y="-961.3" font-family="Times,serif" font-size="14.00">Signaler</text>
<polyline fill="none" stroke="black" points="809,-953.5 1009,-953.5 "/>
<text text-anchor="start" x="817" y="-938.3" font-family="Times,serif" font-size="14.00">id :INTEGER</text>
<text text-anchor="start" x="817" y="-923.3" font-family="Times,serif" font-size="14.00">email :varchar</text>
<text text-anchor="start" x="817" y="-908.3" font-family="Times,serif" font-size="14.00">encrypted_password :varchar</text>
<text text-anchor="start" x="817" y="-893.3" font-family="Times,serif" font-size="14.00">reset_password_token :varchar</text>
<text text-anchor="start" x="817" y="-878.3" font-family="Times,serif" font-size="14.00">reset_password_sent_at :datetime</text>
<text text-anchor="start" x="817" y="-863.3" font-family="Times,serif" font-size="14.00">remember_created_at :datetime</text>
<text text-anchor="start" x="817" y="-848.3" font-family="Times,serif" font-size="14.00">sign_in_count :integer</text>
<text text-anchor="start" x="817" y="-833.3" font-family="Times,serif" font-size="14.00">current_sign_in_at :datetime</text>
<text text-anchor="start" x="817" y="-818.3" font-family="Times,serif" font-size="14.00">last_sign_in_at :datetime</text>
<text text-anchor="start" x="817" y="-803.3" font-family="Times,serif" font-size="14.00">current_sign_in_ip :varchar</text>
<text text-anchor="start" x="817" y="-788.3" font-family="Times,serif" font-size="14.00">last_sign_in_ip :varchar</text>
<text text-anchor="start" x="817" y="-773.3" font-family="Times,serif" font-size="14.00">first_name :varchar</text>
<text text-anchor="start" x="817" y="-758.3" font-family="Times,serif" font-size="14.00">last_name :varchar</text>
<text text-anchor="start" x="817" y="-743.3" font-family="Times,serif" font-size="14.00">phone :varchar</text>
<text text-anchor="start" x="817" y="-728.3" font-family="Times,serif" font-size="14.00">profile_picture :varchar</text>
<text text-anchor="start" x="817" y="-713.3" font-family="Times,serif" font-size="14.00">street :varchar</text>
<text text-anchor="start" x="817" y="-698.3" font-family="Times,serif" font-size="14.00">number :varchar</text>
<text text-anchor="start" x="817" y="-683.3" font-family="Times,serif" font-size="14.00">city :varchar</text>
<text text-anchor="start" x="817" y="-668.3" font-family="Times,serif" font-size="14.00">zip_code :varchar</text>
<text text-anchor="start" x="817" y="-653.3" font-family="Times,serif" font-size="14.00">id_card_number :varchar</text>
<text text-anchor="start" x="817" y="-638.3" font-family="Times,serif" font-size="14.00">municipality :varchar</text>
<text text-anchor="start" x="817" y="-623.3" font-family="Times,serif" font-size="14.00">release_date :date</text>
<text text-anchor="start" x="817" y="-608.3" font-family="Times,serif" font-size="14.00">expiration_date :date</text>
<text text-anchor="start" x="817" y="-593.3" font-family="Times,serif" font-size="14.00">created_at :datetime</text>
<text text-anchor="start" x="817" y="-578.3" font-family="Times,serif" font-size="14.00">updated_at :datetime</text>
</g>
<!-- ApplicationRecord&#45;&gt;Signaler -->
<g id="edge16" class="edge"><title>ApplicationRecord&#45;&gt;Signaler</title>
<path fill="none" stroke="black" d="M716.062,-1554.9C744.254,-1547.07 775.685,-1533.27 795,-1509 913.918,-1359.56 933.44,-1137.41 928.745,-976.582"/>
</g>
<!-- Contact -->
<g id="node9" class="node"><title>Contact</title>
<path fill="none" stroke="black" d="M39.5,-102.5C39.5,-102.5 168.5,-102.5 168.5,-102.5 174.5,-102.5 180.5,-108.5 180.5,-114.5 180.5,-114.5 180.5,-196.5 180.5,-196.5 180.5,-202.5 174.5,-208.5 168.5,-208.5 168.5,-208.5 39.5,-208.5 39.5,-208.5 33.5,-208.5 27.5,-202.5 27.5,-196.5 27.5,-196.5 27.5,-114.5 27.5,-114.5 27.5,-108.5 33.5,-102.5 39.5,-102.5"/>
<text text-anchor="middle" x="104" y="-193.3" font-family="Times,serif" font-size="14.00">Contact</text>
<polyline fill="none" stroke="black" points="27.5,-185.5 180.5,-185.5 "/>
<text text-anchor="start" x="35.5" y="-170.3" font-family="Times,serif" font-size="14.00">id :INTEGER</text>
<text text-anchor="start" x="35.5" y="-155.3" font-family="Times,serif" font-size="14.00">agency_id :integer</text>
<text text-anchor="start" x="35.5" y="-140.3" font-family="Times,serif" font-size="14.00">address_book_id :integer</text>
<text text-anchor="start" x="35.5" y="-125.3" font-family="Times,serif" font-size="14.00">created_at :datetime</text>
<text text-anchor="start" x="35.5" y="-110.3" font-family="Times,serif" font-size="14.00">updated_at :datetime</text>
</g>
<!-- ApplicationRecord&#45;&gt;Contact -->
<g id="edge17" class="edge"><title>ApplicationRecord&#45;&gt;Contact</title>
<path fill="none" stroke="black" d="M626.464,-1549.27C610.146,-1541.08 589,-1531.8 569,-1527 453.115,-1499.2 132.501,-1557.08 34,-1490 6.23575,-1471.09 0,-1456.09 0,-1422.5 0,-1422.5 0,-1422.5 0,-396 0,-334.631 4.14144,-317.109 29,-261 37.0507,-242.829 48.5685,-224.662 60.1696,-208.692"/>
</g>
<!-- Group -->
<g id="node10" class="node"><title>Group</title>
<path fill="none" stroke="black" d="M379.5,-1353.5C379.5,-1353.5 486.5,-1353.5 486.5,-1353.5 492.5,-1353.5 498.5,-1359.5 498.5,-1365.5 498.5,-1365.5 498.5,-1477.5 498.5,-1477.5 498.5,-1483.5 492.5,-1489.5 486.5,-1489.5 486.5,-1489.5 379.5,-1489.5 379.5,-1489.5 373.5,-1489.5 367.5,-1483.5 367.5,-1477.5 367.5,-1477.5 367.5,-1365.5 367.5,-1365.5 367.5,-1359.5 373.5,-1353.5 379.5,-1353.5"/>
<text text-anchor="middle" x="433" y="-1474.3" font-family="Times,serif" font-size="14.00">Group</text>
<polyline fill="none" stroke="black" points="367.5,-1466.5 498.5,-1466.5 "/>
<text text-anchor="start" x="375.5" y="-1451.3" font-family="Times,serif" font-size="14.00">id :INTEGER</text>
<text text-anchor="start" x="375.5" y="-1436.3" font-family="Times,serif" font-size="14.00">name :varchar</text>
<text text-anchor="start" x="375.5" y="-1421.3" font-family="Times,serif" font-size="14.00">description :text</text>
<text text-anchor="start" x="375.5" y="-1406.3" font-family="Times,serif" font-size="14.00">logo :varchar</text>
<text text-anchor="start" x="375.5" y="-1391.3" font-family="Times,serif" font-size="14.00">parent_id :integer</text>
<text text-anchor="start" x="375.5" y="-1376.3" font-family="Times,serif" font-size="14.00">created_at :datetime</text>
<text text-anchor="start" x="375.5" y="-1361.3" font-family="Times,serif" font-size="14.00">updated_at :datetime</text>
</g>
<!-- ApplicationRecord&#45;&gt;Group -->
<g id="edge24" class="edge"><title>ApplicationRecord&#45;&gt;Group</title>
<path fill="none" stroke="black" d="M629.965,-1548.93C598.328,-1528.62 542.683,-1492.9 498.59,-1464.6"/>
</g>
<!-- Forwarder -->
<g id="node11" class="node"><title>Forwarder</title>
<path fill="none" stroke="black" d="M420,-1014.5C420,-1014.5 596,-1014.5 596,-1014.5 602,-1014.5 608,-1020.5 608,-1026.5 608,-1026.5 608,-1303.5 608,-1303.5 608,-1309.5 602,-1315.5 596,-1315.5 596,-1315.5 420,-1315.5 420,-1315.5 414,-1315.5 408,-1309.5 408,-1303.5 408,-1303.5 408,-1026.5 408,-1026.5 408,-1020.5 414,-1014.5 420,-1014.5"/>
<text text-anchor="middle" x="508" y="-1300.3" font-family="Times,serif" font-size="14.00">Forwarder</text>
<polyline fill="none" stroke="black" points="408,-1292.5 608,-1292.5 "/>
<text text-anchor="start" x="416" y="-1277.3" font-family="Times,serif" font-size="14.00">id :INTEGER</text>
<text text-anchor="start" x="416" y="-1262.3" font-family="Times,serif" font-size="14.00">email :varchar</text>
<text text-anchor="start" x="416" y="-1247.3" font-family="Times,serif" font-size="14.00">encrypted_password :varchar</text>
<text text-anchor="start" x="416" y="-1232.3" font-family="Times,serif" font-size="14.00">reset_password_token :varchar</text>
<text text-anchor="start" x="416" y="-1217.3" font-family="Times,serif" font-size="14.00">reset_password_sent_at :datetime</text>
<text text-anchor="start" x="416" y="-1202.3" font-family="Times,serif" font-size="14.00">remember_created_at :datetime</text>
<text text-anchor="start" x="416" y="-1187.3" font-family="Times,serif" font-size="14.00">sign_in_count :integer</text>
<text text-anchor="start" x="416" y="-1172.3" font-family="Times,serif" font-size="14.00">current_sign_in_at :datetime</text>
<text text-anchor="start" x="416" y="-1157.3" font-family="Times,serif" font-size="14.00">last_sign_in_at :datetime</text>
<text text-anchor="start" x="416" y="-1142.3" font-family="Times,serif" font-size="14.00">current_sign_in_ip :varchar</text>
<text text-anchor="start" x="416" y="-1127.3" font-family="Times,serif" font-size="14.00">last_sign_in_ip :varchar</text>
<text text-anchor="start" x="416" y="-1112.3" font-family="Times,serif" font-size="14.00">first_name :varchar</text>
<text text-anchor="start" x="416" y="-1097.3" font-family="Times,serif" font-size="14.00">last_name :varchar</text>
<text text-anchor="start" x="416" y="-1082.3" font-family="Times,serif" font-size="14.00">profile_picture :varchar</text>
<text text-anchor="start" x="416" y="-1067.3" font-family="Times,serif" font-size="14.00">boss :boolean</text>
<text text-anchor="start" x="416" y="-1052.3" font-family="Times,serif" font-size="14.00">group_id :integer</text>
<text text-anchor="start" x="416" y="-1037.3" font-family="Times,serif" font-size="14.00">created_at :datetime</text>
<text text-anchor="start" x="416" y="-1022.3" font-family="Times,serif" font-size="14.00">updated_at :datetime</text>
</g>
<!-- ApplicationRecord&#45;&gt;Forwarder -->
<g id="edge30" class="edge"><title>ApplicationRecord&#45;&gt;Forwarder</title>
<path fill="none" stroke="black" d="M648.684,-1547.86C633.928,-1507.81 595.959,-1404.75 563.182,-1315.78"/>
</g>
<!-- Tipology -->
<g id="node12" class="node"><title>Tipology</title>
<path fill="none" stroke="black" d="M532,-698C532,-698 640,-698 640,-698 646,-698 652,-704 652,-710 652,-710 652,-837 652,-837 652,-843 646,-849 640,-849 640,-849 532,-849 532,-849 526,-849 520,-843 520,-837 520,-837 520,-710 520,-710 520,-704 526,-698 532,-698"/>
<text text-anchor="middle" x="586" y="-833.8" font-family="Times,serif" font-size="14.00">Tipology</text>
<polyline fill="none" stroke="black" points="520,-826 652,-826 "/>
<text text-anchor="start" x="528" y="-810.8" font-family="Times,serif" font-size="14.00">id :INTEGER</text>
<text text-anchor="start" x="528" y="-795.8" font-family="Times,serif" font-size="14.00">name :varchar</text>
<text text-anchor="start" x="528" y="-780.8" font-family="Times,serif" font-size="14.00">description :text</text>
<text text-anchor="start" x="528" y="-765.8" font-family="Times,serif" font-size="14.00">logo :varchar</text>
<text text-anchor="start" x="528" y="-750.8" font-family="Times,serif" font-size="14.00">parent_id :integer</text>
<text text-anchor="start" x="528" y="-735.8" font-family="Times,serif" font-size="14.00">created_at :datetime</text>
<text text-anchor="start" x="528" y="-720.8" font-family="Times,serif" font-size="14.00">updated_at :datetime</text>
<text text-anchor="start" x="528" y="-705.8" font-family="Times,serif" font-size="14.00">forwarder_id :integer</text>
</g>
<!-- ApplicationRecord&#45;&gt;Tipology -->
<g id="edge34" class="edge"><title>ApplicationRecord&#45;&gt;Tipology</title>
<path fill="none" stroke="black" d="M668.308,-1547.94C675.691,-1537.37 684.14,-1523.15 688,-1509 745.886,-1296.75 731.99,-1229.56 688,-1014 676.207,-956.213 649.932,-895.105 627.004,-849.079"/>
</g>
<!-- Report -->
<g id="node13" class="node"><title>Report</title>
<path fill="none" stroke="black" d="M675,-261.5C675,-261.5 811,-261.5 811,-261.5 817,-261.5 823,-267.5 823,-273.5 823,-273.5 823,-520.5 823,-520.5 823,-526.5 817,-532.5 811,-532.5 811,-532.5 675,-532.5 675,-532.5 669,-532.5 663,-526.5 663,-520.5 663,-520.5 663,-273.5 663,-273.5 663,-267.5 669,-261.5 675,-261.5"/>
<text text-anchor="middle" x="743" y="-517.3" font-family="Times,serif" font-size="14.00">Report</text>
<polyline fill="none" stroke="black" points="663,-509.5 823,-509.5 "/>
<text text-anchor="start" x="671" y="-494.3" font-family="Times,serif" font-size="14.00">id :INTEGER</text>
<text text-anchor="start" x="671" y="-479.3" font-family="Times,serif" font-size="14.00">object :varchar</text>
<text text-anchor="start" x="671" y="-464.3" font-family="Times,serif" font-size="14.00">description :text</text>
<text text-anchor="start" x="671" y="-449.3" font-family="Times,serif" font-size="14.00">images :varchar</text>
<text text-anchor="start" x="671" y="-434.3" font-family="Times,serif" font-size="14.00">address :varchar</text>
<text text-anchor="start" x="671" y="-419.3" font-family="Times,serif" font-size="14.00">longitude :decimal(10,6)</text>
<text text-anchor="start" x="671" y="-404.3" font-family="Times,serif" font-size="14.00">latitude :decimal(10,6)</text>
<text text-anchor="start" x="671" y="-389.3" font-family="Times,serif" font-size="14.00">report_type :varchar</text>
<text text-anchor="start" x="671" y="-374.3" font-family="Times,serif" font-size="14.00">intervention_type :varchar</text>
<text text-anchor="start" x="671" y="-359.3" font-family="Times,serif" font-size="14.00">state :varchar</text>
<text text-anchor="start" x="671" y="-344.3" font-family="Times,serif" font-size="14.00">signaler_id :integer</text>
<text text-anchor="start" x="671" y="-329.3" font-family="Times,serif" font-size="14.00">tipology_id :integer</text>
<text text-anchor="start" x="671" y="-314.3" font-family="Times,serif" font-size="14.00">created_at :datetime</text>
<text text-anchor="start" x="671" y="-299.3" font-family="Times,serif" font-size="14.00">updated_at :datetime</text>
<text text-anchor="start" x="671" y="-284.3" font-family="Times,serif" font-size="14.00">forwarder :integer</text>
<text text-anchor="start" x="671" y="-269.3" font-family="Times,serif" font-size="14.00">agency :integer</text>
</g>
<!-- ApplicationRecord&#45;&gt;Report -->
<g id="edge41" class="edge"><title>ApplicationRecord&#45;&gt;Report</title>
<path fill="none" stroke="black" d="M683.907,-1549.17C721.106,-1526.44 781,-1480.79 781,-1422.5 781,-1422.5 781,-1422.5 781,-772.5 781,-692.772 772.37,-603.981 763.335,-532.873"/>
</g>
<!-- AddressBook -->
<g id="node14" class="node"><title>AddressBook</title>
<path fill="none" stroke="black" d="M50,-329C50,-329 158,-329 158,-329 164,-329 170,-335 170,-341 170,-341 170,-453 170,-453 170,-459 164,-465 158,-465 158,-465 50,-465 50,-465 44,-465 38,-459 38,-453 38,-453 38,-341 38,-341 38,-335 44,-329 50,-329"/>
<text text-anchor="middle" x="104" y="-449.8" font-family="Times,serif" font-size="14.00">AddressBook</text>
<polyline fill="none" stroke="black" points="38,-442 170,-442 "/>
<text text-anchor="start" x="46" y="-426.8" font-family="Times,serif" font-size="14.00">id :INTEGER</text>
<text text-anchor="start" x="46" y="-411.8" font-family="Times,serif" font-size="14.00">name :varchar</text>
<text text-anchor="start" x="46" y="-396.8" font-family="Times,serif" font-size="14.00">note :text</text>
<text text-anchor="start" x="46" y="-381.8" font-family="Times,serif" font-size="14.00">group_id :integer</text>
<text text-anchor="start" x="46" y="-366.8" font-family="Times,serif" font-size="14.00">forwarder_id :integer</text>
<text text-anchor="start" x="46" y="-351.8" font-family="Times,serif" font-size="14.00">created_at :datetime</text>
<text text-anchor="start" x="46" y="-336.8" font-family="Times,serif" font-size="14.00">updated_at :datetime</text>
</g>
<!-- ApplicationRecord&#45;&gt;AddressBook -->
<g id="edge43" class="edge"><title>ApplicationRecord&#45;&gt;AddressBook</title>
<path fill="none" stroke="black" d="M626.064,-1549.12C609.795,-1540.99 588.826,-1531.82 569,-1527 452.141,-1498.59 38,-1542.76 38,-1422.5 38,-1422.5 38,-1422.5 38,-772.5 38,-663.568 65.4178,-539.481 84.9101,-465.028"/>
</g>
<!-- Agency&#45;&gt;Contact -->
<g id="edge10" class="edge"><title>Agency&#45;&gt;Contact</title>
<path fill="none" stroke="#89c413" d="M220.86,-644.585C226.169,-538.697 223.268,-385.925 179,-261 173.564,-245.661 165.146,-230.586 155.883,-216.869"/>
<ellipse fill="none" stroke="#89c413" cx="220.64" cy="-648.77" rx="4" ry="4"/>
<polygon fill="#89c413" stroke="#89c413" points="155.766,-216.702 153.711,-205.93 152.896,-212.608 150.026,-208.513 150.026,-208.513 150.026,-208.513 152.896,-212.608 146.341,-211.096 155.766,-216.702 155.766,-216.702"/>
</g>
<!-- Agency&#45;&gt;Report -->
<g id="edge9" class="edge"><title>Agency&#45;&gt;Report</title>
<path fill="none" stroke="#610887" d="M280.819,-656.064C303.697,-625.315 330.963,-594.042 361,-570 385.321,-550.533 548.187,-480.084 653.26,-435.612"/>
<ellipse fill="none" stroke="#610887" cx="278.373" cy="-659.391" rx="4.00002" ry="4.00002"/>
<polygon fill="#610887" stroke="#610887" points="653.4,-435.553 664.363,-435.803 658.005,-433.605 662.611,-431.658 662.611,-431.658 662.611,-431.658 658.005,-433.605 660.858,-427.513 653.4,-435.553 653.4,-435.553"/>
</g>
<!-- Agency&#45;&gt;AddressBook -->
<g id="edge11" class="edge"><title>Agency&#45;&gt;AddressBook</title>
<path fill="none" stroke="#fbc92a" d="M172.71,-643.064C157.007,-587.058 139.159,-523.401 125.59,-475.005"/>
<polygon fill="#fbc92a" stroke="#fbc92a" points="172.789,-643.347 171.156,-654.191 174.139,-648.162 175.489,-652.976 175.489,-652.976 175.489,-652.976 174.139,-648.162 179.822,-651.761 172.789,-643.347 172.789,-643.347"/>
<polygon fill="#fbc92a" stroke="#fbc92a" points="125.548,-474.855 127.182,-464.012 124.198,-470.041 122.849,-465.227 122.849,-465.227 122.849,-465.227 124.198,-470.041 118.516,-466.442 125.548,-474.855 125.548,-474.855"/>
</g>
<!-- Signaler&#45;&gt;Observation -->
<g id="edge14" class="edge"><title>Signaler&#45;&gt;Observation</title>
<path fill="none" stroke="#a92fea" d="M902.997,-562.193C893.913,-466.849 874.067,-354.735 832,-261 827.56,-251.106 821.912,-241.398 815.632,-232.128"/>
<ellipse fill="none" stroke="#a92fea" cx="903.369" cy="-566.21" rx="4" ry="4"/>
<polygon fill="#a92fea" stroke="#a92fea" points="815.478,-231.91 813.379,-221.147 812.591,-227.828 809.705,-223.745 809.705,-223.745 809.705,-223.745 812.591,-227.828 806.03,-226.343 815.478,-231.91 815.478,-231.91"/>
</g>
<!-- Signaler&#45;&gt;Intervention -->
<g id="edge15" class="edge"><title>Signaler&#45;&gt;Intervention</title>
<path fill="none" stroke="#eebc29" d="M909,-562.014C909,-445.222 909,-307.57 909,-226.414"/>
<ellipse fill="none" stroke="#eebc29" cx="909" cy="-566.372" rx="4" ry="4"/>
<polygon fill="#eebc29" stroke="#eebc29" points="909,-226.317 913.5,-216.317 909,-221.317 909,-216.317 909,-216.317 909,-216.317 909,-221.317 904.5,-216.317 909,-226.317 909,-226.317"/>
</g>
<!-- Signaler&#45;&gt;Report -->
<g id="edge13" class="edge"><title>Signaler&#45;&gt;Report</title>
<path fill="none" stroke="#b3bd5c" d="M816.126,-562.975C813.003,-555.928 809.898,-548.924 806.831,-542.004"/>
<ellipse fill="none" stroke="#b3bd5c" cx="817.82" cy="-566.795" rx="4.00002" ry="4.00002"/>
<polygon fill="#b3bd5c" stroke="#b3bd5c" points="806.725,-541.764 806.786,-530.799 804.699,-537.193 802.672,-532.622 802.672,-532.622 802.672,-532.622 804.699,-537.193 798.558,-534.446 806.725,-541.764 806.725,-541.764"/>
</g>
<!-- Group&#45;&gt;Occupation -->
<g id="edge18" class="edge"><title>Group&#45;&gt;Occupation</title>
<path fill="none" stroke="#f12ca5" d="M393.982,-1345.82C390.043,-1335.99 386.559,-1325.89 384,-1316 303.055,-1003.05 331.493,-610.095 346.838,-460.078"/>
<ellipse fill="none" stroke="#f12ca5" cx="395.543" cy="-1349.58" rx="4.00002" ry="4.00002"/>
<polygon fill="#f12ca5" stroke="#f12ca5" points="346.839,-460.073 352.349,-450.592 347.356,-455.099 347.874,-450.126 347.874,-450.126 347.874,-450.126 347.356,-455.099 343.398,-449.661 346.839,-460.073 346.839,-460.073"/>
</g>
<!-- Group&#45;&gt;Notice -->
<g id="edge22" class="edge"><title>Group&#45;&gt;Notice</title>
<path fill="none" stroke="#7bd2d8" d="M405.488,-1345.44C402.816,-1335.65 400.533,-1325.66 399,-1316 374.74,-1163.03 396.886,-983.26 415.848,-874.168"/>
<ellipse fill="none" stroke="#7bd2d8" cx="406.612" cy="-1349.4" rx="4.00001" ry="4.00001"/>
<polygon fill="#7bd2d8" stroke="#7bd2d8" points="415.876,-874.008 422.045,-864.942 416.745,-869.084 417.613,-864.16 417.613,-864.16 417.613,-864.16 416.745,-869.084 413.182,-863.378 415.876,-874.008 415.876,-874.008"/>
</g>
<!-- Group&#45;&gt;Group -->
<g id="edge23" class="edge"><title>Group&#45;&gt;Group</title>
<path fill="none" stroke="#8dfe31" d="M506.797,-1433.86C512.786,-1431.17 516.5,-1427.05 516.5,-1421.5 516.5,-1416.43 513.404,-1412.55 508.307,-1409.88"/>
<ellipse fill="none" stroke="#8dfe31" cx="502.626" cy="-1435.16" rx="4.00001" ry="4.00001"/>
<polygon fill="#8dfe31" stroke="#8dfe31" points="508.276,-1409.87 500.254,-1402.39 503.542,-1408.26 498.807,-1406.65 498.807,-1406.65 498.807,-1406.65 503.542,-1408.26 497.361,-1410.91 508.276,-1409.87 508.276,-1409.87"/>
<text text-anchor="middle" x="539" y="-1417.8" font-family="Times,serif" font-size="14.00">children</text>
</g>
<!-- Group&#45;&gt;Forwarder -->
<g id="edge20" class="edge"><title>Group&#45;&gt;Forwarder</title>
<path fill="none" stroke="#1bfce0" d="M455.118,-1345.45C456.996,-1339.07 458.937,-1332.49 460.916,-1325.77"/>
<ellipse fill="none" stroke="#1bfce0" cx="453.934" cy="-1349.46" rx="4.00001" ry="4.00001"/>
<polygon fill="#1bfce0" stroke="#1bfce0" points="461.013,-1325.44 468.157,-1317.12 462.427,-1320.64 463.84,-1315.85 463.84,-1315.85 463.84,-1315.85 462.427,-1320.64 459.524,-1314.58 461.013,-1325.44 461.013,-1325.44"/>
</g>
<!-- Group&#45;&gt;Tipology -->
<g id="edge19" class="edge"><title>Group&#45;&gt;Tipology</title>
<path fill="none" stroke="#1ff9b9" d="M508.357,-1398.29C548.182,-1382.29 593.56,-1356.27 617,-1316 700.198,-1173.07 654.648,-971.385 617.847,-858.838"/>
<polygon fill="#1ff9b9" stroke="#1ff9b9" points="508.227,-1398.34 497.277,-1397.75 503.563,-1400.14 498.9,-1401.95 498.9,-1401.95 498.9,-1401.95 503.563,-1400.14 500.524,-1406.15 508.227,-1398.34 508.227,-1398.34"/>
<polygon fill="#1ff9b9" stroke="#1ff9b9" points="617.808,-858.718 618.926,-847.809 616.232,-853.973 614.655,-849.228 614.655,-849.228 614.655,-849.228 616.232,-853.973 610.385,-850.646 617.808,-858.718 617.808,-858.718"/>
</g>
<!-- Group&#45;&gt;AddressBook -->
<g id="edge21" class="edge"><title>Group&#45;&gt;AddressBook</title>
<path fill="none" stroke="#60b605" d="M361.391,-1356.89C278.396,-1277.66 146.781,-1133.54 98,-977 44.1472,-804.183 69.0209,-588.022 88.5151,-474.991"/>
<ellipse fill="none" stroke="#60b605" cx="364.38" cy="-1359.73" rx="4.00002" ry="4.00002"/>
<polygon fill="#60b605" stroke="#60b605" points="88.5324,-474.892 94.6952,-465.821 89.3978,-469.967 90.2631,-465.043 90.2631,-465.043 90.2631,-465.043 89.3978,-469.967 85.831,-464.264 88.5324,-474.892 88.5324,-474.892"/>
</g>
<!-- Forwarder&#45;&gt;Notice -->
<g id="edge29" class="edge"><title>Forwarder&#45;&gt;Notice</title>
<path fill="none" stroke="#7f5721" d="M478.831,-1006.21C470.596,-961.657 461.866,-914.43 454.451,-874.317"/>
<ellipse fill="none" stroke="#7f5721" cx="479.59" cy="-1010.31" rx="4.00001" ry="4.00001"/>
<polygon fill="#7f5721" stroke="#7f5721" points="454.413,-874.111 457.021,-863.459 453.504,-869.194 452.596,-864.277 452.596,-864.277 452.596,-864.277 453.504,-869.194 448.171,-865.096 454.413,-874.111 454.413,-874.111"/>
</g>
<!-- Forwarder&#45;&gt;Agency -->
<g id="edge28" class="edge"><title>Forwarder&#45;&gt;Agency</title>
<path fill="none" stroke="#371ce0" d="M433.089,-1008.26C428.624,-1003.54 423.931,-999.099 419,-995 398.244,-977.747 383.062,-992.548 361,-977 331.03,-955.879 304.454,-927.024 282.241,-897.718"/>
<ellipse fill="none" stroke="#371ce0" cx="435.936" cy="-1011.4" rx="4.00002" ry="4.00002"/>
<polygon fill="#371ce0" stroke="#371ce0" points="282.059,-897.472 279.704,-886.762 279.076,-893.459 276.093,-889.446 276.093,-889.446 276.093,-889.446 279.076,-893.459 272.481,-892.131 282.059,-897.472 282.059,-897.472"/>
</g>
<!-- Forwarder&#45;&gt;Tipology -->
<g id="edge25" class="edge"><title>Forwarder&#45;&gt;Tipology</title>
<path fill="none" stroke="#78b10f" d="M539.587,-1006.27C549.673,-955.904 560.445,-902.112 569.07,-859.041"/>
<ellipse fill="none" stroke="#78b10f" cx="538.775" cy="-1010.32" rx="4.00001" ry="4.00001"/>
<polygon fill="#78b10f" stroke="#78b10f" points="569.082,-858.983 575.458,-850.062 570.063,-854.081 571.045,-849.178 571.045,-849.178 571.045,-849.178 570.063,-854.081 566.633,-848.294 569.082,-858.983 569.082,-858.983"/>
</g>
<!-- Forwarder&#45;&gt;Report -->
<g id="edge26" class="edge"><title>Forwarder&#45;&gt;Report</title>
<path fill="none" stroke="#4337db" d="M614.523,-1099.85C656.504,-1068.49 700.289,-1026.72 724,-977 759.225,-903.142 757.346,-689.25 751.301,-543.181"/>
<ellipse fill="none" stroke="#4337db" cx="611.296" cy="-1102.23" rx="4.00002" ry="4.00002"/>
<polygon fill="#4337db" stroke="#4337db" points="751.284,-542.775 755.355,-532.593 751.071,-537.78 750.859,-532.784 750.859,-532.784 750.859,-532.784 751.071,-537.78 746.363,-532.975 751.284,-542.775 751.284,-542.775"/>
</g>
<!-- Forwarder&#45;&gt;AddressBook -->
<g id="edge27" class="edge"><title>Forwarder&#45;&gt;AddressBook</title>
<path fill="none" stroke="#871f86" d="M401.258,-1078.16C357.643,-1047.25 305.221,-1015.08 253,-995 227.831,-985.322 151.102,-996.986 133,-977 100.1,-940.676 100.476,-624.457 102.537,-475.279"/>
<ellipse fill="none" stroke="#871f86" cx="404.65" cy="-1080.58" rx="4.00002" ry="4.00002"/>
<polygon fill="#871f86" stroke="#871f86" points="102.537,-475.265 107.181,-465.331 102.61,-470.266 102.682,-465.266 102.682,-465.266 102.682,-465.266 102.61,-470.266 98.1822,-465.201 102.537,-475.265 102.537,-475.265"/>
</g>
<!-- Tipology&#45;&gt;Occupation -->
<g id="edge32" class="edge"><title>Tipology&#45;&gt;Occupation</title>
<path fill="none" stroke="#1f0ce0" d="M563.32,-689.68C550.938,-651.652 533.493,-606.912 511,-570 485.875,-528.768 450.024,-488.573 418.923,-457.422"/>
<ellipse fill="none" stroke="#1f0ce0" cx="564.665" cy="-693.879" rx="4.00001" ry="4.00001"/>
<polygon fill="#1f0ce0" stroke="#1f0ce0" points="418.645,-457.147 414.71,-446.912 415.094,-453.628 411.542,-450.109 411.542,-450.109 411.542,-450.109 415.094,-453.628 408.375,-453.305 418.645,-457.147 418.645,-457.147"/>
</g>
<!-- Tipology&#45;&gt;Tipology -->
<g id="edge33" class="edge"><title>Tipology&#45;&gt;Tipology</title>
<path fill="none" stroke="#be3612" d="M659.031,-806.707C665.76,-799.84 670,-788.771 670,-773.5 670,-759.164 666.264,-748.532 660.239,-741.602"/>
<ellipse fill="none" stroke="#be3612" cx="655.401" cy="-809.431" rx="4.00002" ry="4.00002"/>
<polygon fill="#be3612" stroke="#be3612" points="660.008,-741.417 655.014,-731.655 656.105,-738.292 652.201,-735.168 652.201,-735.168 652.201,-735.168 656.105,-738.292 649.389,-738.681 660.008,-741.417 660.008,-741.417"/>
<text text-anchor="middle" x="692.5" y="-769.8" font-family="Times,serif" font-size="14.00">children</text>
</g>
<!-- Tipology&#45;&gt;Report -->
<g id="edge31" class="edge"><title>Tipology&#45;&gt;Report</title>
<path fill="none" stroke="#c572f9" d="M620.574,-690.029C638.782,-646.595 661.641,-592.07 682.661,-541.93"/>
<ellipse fill="none" stroke="#c572f9" cx="618.94" cy="-693.925" rx="4.00002" ry="4.00002"/>
<polygon fill="#c572f9" stroke="#c572f9" points="682.697,-541.845 690.713,-534.362 684.63,-537.234 686.563,-532.622 686.563,-532.622 686.563,-532.622 684.63,-537.234 682.413,-530.883 682.697,-541.845 682.697,-541.845"/>
</g>
<!-- Report&#45;&gt;Observation -->
<g id="edge39" class="edge"><title>Report&#45;&gt;Observation</title>
<path fill="none" stroke="#2a29c8" d="M744.194,-253.026C744.248,-246.531 744.302,-240.131 744.354,-233.907"/>
<ellipse fill="none" stroke="#2a29c8" cx="744.159" cy="-257.2" rx="4" ry="4"/>
<polygon fill="#2a29c8" stroke="#2a29c8" points="744.356,-233.611 748.939,-223.649 744.398,-228.611 744.44,-223.611 744.44,-223.611 744.44,-223.611 744.398,-228.611 739.94,-223.573 744.356,-233.611 744.356,-233.611"/>
</g>
<!-- Report&#45;&gt;Intervention -->
<g id="edge40" class="edge"><title>Report&#45;&gt;Intervention</title>
<path fill="none" stroke="#4f1aa3" d="M827.783,-273.677C839.477,-256.806 851.124,-240.002 861.794,-224.607"/>
<ellipse fill="none" stroke="#4f1aa3" cx="825.361" cy="-277.172" rx="4.00002" ry="4.00002"/>
<polygon fill="#4f1aa3" stroke="#4f1aa3" points="861.92,-224.426 871.315,-218.771 864.768,-220.317 867.616,-216.207 867.616,-216.207 867.616,-216.207 864.768,-220.317 863.918,-213.644 861.92,-224.426 861.92,-224.426"/>
</g>
<!-- Report&#45;&gt;ActsAsTaggableOn::Tagging -->
<g id="edge35" class="edge"><title>Report&#45;&gt;ActsAsTaggableOn::Tagging</title>
<path fill="none" stroke="#bc64c2" d="M654.806,-373.72C581.312,-349.982 481.282,-304.432 434,-224 403.143,-171.509 404.216,-140.107 434,-87 446.771,-64.2293 470.379,-48.5842 493.449,-38.0987"/>
<ellipse fill="none" stroke="#bc64c2" cx="658.917" cy="-375.021" rx="4.00001" ry="4.00001"/>
<polygon fill="#bc64c2" stroke="#bc64c2" points="493.728,-37.9798 504.692,-38.192 498.327,-36.0165 502.925,-34.0533 502.925,-34.0533 502.925,-34.0533 498.327,-36.0165 501.158,-29.9147 493.728,-37.9798 493.728,-37.9798"/>
<text text-anchor="middle" x="457" y="-151.8" font-family="Times,serif" font-size="14.00">taggings</text>
</g>
<!-- Report&#45;&gt;ActsAsTaggableOn::Tagging -->
<g id="edge37" class="edge"><title>Report&#45;&gt;ActsAsTaggableOn::Tagging</title>
<path fill="none" stroke="#497268" d="M655.683,-355.102C605.12,-326.249 545.91,-282.333 517,-224 489.962,-169.444 501.325,-145.837 517,-87 521.031,-71.8675 529.318,-56.5999 537.221,-44.3761"/>
<ellipse fill="none" stroke="#497268" cx="659.269" cy="-357.115" rx="4.00002" ry="4.00002"/>
<polygon fill="#497268" stroke="#497268" points="537.242,-44.3446 546.569,-38.578 540.041,-40.2016 542.84,-36.0586 542.84,-36.0586 542.84,-36.0586 540.041,-40.2016 539.112,-33.5393 537.242,-44.3446 537.242,-44.3446"/>
<text text-anchor="middle" x="552" y="-151.8" font-family="Times,serif" font-size="14.00">tag_taggings</text>
</g>
<!-- Report&#45;&gt;ActsAsTaggableOn::Tag -->
<g id="edge36" class="edge"><title>Report&#45;&gt;ActsAsTaggableOn::Tag</title>
<path fill="none" stroke="#52f134" d="M656.823,-293.205C604.753,-218.308 559.432,-118.983 622,-54 631.035,-44.6163 691.715,-35.373 746.915,-28.7439"/>
<polygon fill="#52f134" stroke="#52f134" points="657.094,-293.587 659.194,-304.35 659.981,-297.67 662.868,-301.752 662.868,-301.752 662.868,-301.752 659.981,-297.67 666.542,-299.154 657.094,-293.587 657.094,-293.587"/>
<polygon fill="#52f134" stroke="#52f134" points="747.213,-28.7088 757.671,-32.0061 752.179,-28.1229 757.144,-27.5371 757.144,-27.5371 757.144,-27.5371 752.179,-28.1229 756.617,-23.0681 747.213,-28.7088 747.213,-28.7088"/>
<text text-anchor="middle" x="641.5" y="-151.8" font-family="Times,serif" font-size="14.00">base_tags</text>
</g>
<!-- Report&#45;&gt;ActsAsTaggableOn::Tag -->
<g id="edge38" class="edge"><title>Report&#45;&gt;ActsAsTaggableOn::Tag</title>
<path fill="none" stroke="#2a13c1" d="M832.493,-362.022C891.153,-334.499 963.197,-289.455 998,-224 1026.59,-170.238 1031.42,-137.897 998,-87 980.346,-60.1146 949.538,-43.8072 919.862,-33.9393"/>
<polygon fill="#2a13c1" stroke="#2a13c1" points="832.288,-362.116 821.323,-362.2 827.744,-364.202 823.201,-366.289 823.201,-366.289 823.201,-366.289 827.744,-364.202 825.079,-370.378 832.288,-362.116 832.288,-362.116"/>
<polygon fill="#2a13c1" stroke="#2a13c1" points="919.832,-33.9302 911.623,-26.66 915.058,-32.4433 910.285,-30.9565 910.285,-30.9565 910.285,-30.9565 915.058,-32.4433 908.946,-35.2529 919.832,-33.9302 919.832,-33.9302"/>
<text text-anchor="middle" x="1032" y="-151.8" font-family="Times,serif" font-size="14.00">tags</text>
</g>
<!-- AddressBook&#45;&gt;Contact -->
<g id="edge42" class="edge"><title>AddressBook&#45;&gt;Contact</title>
<path fill="none" stroke="#e06a7c" d="M104,-320.816C104,-288.071 104,-250.142 104,-218.98"/>
<ellipse fill="none" stroke="#e06a7c" cx="104" cy="-324.967" rx="4" ry="4"/>
<polygon fill="#e06a7c" stroke="#e06a7c" points="104,-218.689 108.5,-208.689 104,-213.689 104,-208.689 104,-208.689 104,-208.689 104,-213.689 99.5,-208.689 104,-218.689 104,-218.689"/>
</g>
</g>
</svg>
